<svg width="25" height="24" viewBox="0 0 25 24" fill="none" xmlns="http://www.w3.org/2000/svg">
<path d="M22.7969 8H19.7969M2.79688 8H13.7969H2.79688Z" stroke="#A2A9B4" stroke-width="2" stroke-linecap="round" stroke-linejoin="round"/>
<path d="M2.79688 16H5.79688M22.7969 16H11.7969H22.7969Z" stroke="#A2A9B4" stroke-width="2" stroke-linecap="round" stroke-linejoin="round"/>
<path d="M16.7969 11C18.4537 11 19.7969 9.65685 19.7969 8C19.7969 6.34315 18.4537 5 16.7969 5C15.14 5 13.7969 6.34315 13.7969 8C13.7969 9.65685 15.14 11 16.7969 11Z" stroke="#A2A9B4" stroke-width="2" stroke-linecap="round" stroke-linejoin="round"/>
<path d="M8.79688 19C7.14002 19 5.79688 17.6569 5.79688 16C5.79688 14.3431 7.14002 13 8.79688 13C10.4537 13 11.7969 14.3431 11.7969 16C11.7969 17.6569 10.4537 19 8.79688 19Z" stroke="#A2A9B4" stroke-width="2" stroke-linecap="round" stroke-linejoin="round"/>
</svg>
